/* XPM */
static char *_bd0856f8cc0415eb3924f4bead6c9177QdxHqOacSNyuKvx[] = {
/* columns rows colors chars-per-pixel */
"64 64 121 2 ",
"   c None",
".  c #712C05",
"X  c #773106",
"o  c #783306",
"O  c #963E07",
"+  c #974307",
"@  c #994007",
"#  c #974608",
"$  c #9A4108",
"%  c #9D4B09",
"&  c #9D5009",
"*  c #A04907",
"=  c #A34C08",
"-  c #AE4F08",
";  c #A55108",
":  c #AF5008",
">  c #B15108",
",  c #BD5C08",
"<  c #C25F08",
"1  c #C86E07",
"2  c #C56309",
"3  c #C96609",
"4  c #C56A0A",
"5  c #C96D09",
"6  c #CC7308",
"7  c #CF7E09",
"8  c #D6730B",
"9  c #DA770C",
"0  c #DE7C0C",
"q  c #C76A10",
"w  c #E17D0C",
"e  c #DB850D",
"r  c #DD8D0D",
"t  c #DD8D14",
"y  c #DD8D1B",
"u  c #DF941B",
"i  c #E4820C",
"p  c #EA860C",
"a  c #E5880C",
"s  c #EE8B0C",
"d  c #F08D0D",
"f  c #EE900C",
"g  c #ED9B0D",
"h  c #F0910C",
"j  c #E68B14",
"k  c #ED8F14",
"l  c #ED8F1A",
"z  c #ED9019",
"x  c #F09314",
"c  c #F19814",
"v  c #F19519",
"b  c #F7A40D",
"n  c #F8A70D",
"m  c #F9A90D",
"M  c #F6B60D",
"N  c #F9B60D",
"B  c #FDBD0D",
"V  c #F7AA12",
"C  c #F9AE15",
"Z  c #FDBE15",
"A  c #DF9423",
"S  c #FFC20D",
"D  c #FFD60D",
"F  c #F4DC0D",
"G  c #FFD90D",
"H  c #FFC215",
"J  c #FFC31A",
"K  c #FFDA1B",
"L  c #FBE40D",
"P  c #FFED0D",
"I  c #FFF10D",
"U  c #FFEF15",
"Y  c #FAE91A",
"T  c #FFF215",
"R  c #FFF21B",
"E  c #FFDD24",
"W  c #FFF323",
"Q  c #FEF057",
"!  c #FAE771",
"~  c #FDEF76",
"^  c #FDED71",
"/  c #FDEF79",
"(  c #FAED7E",
")  c #FDF071",
"_  c #FFF371",
"`  c #FFF571",
"'  c #FFF671",
"]  c #FFF771",
"[  c #FEF078",
"{  c #FEF178",
"}  c #FEF079",
"|  c #FFF378",
" . c #FFF379",
".. c #FEF679",
"X. c #FFF779",
"o. c #FFF77E",
"O. c #FFF77F",
"+. c #FFF87F",
"@. c #FBF0C1",
"#. c #FDF1C1",
"$. c #FCF6C1",
"%. c #FDF6C1",
"&. c #FFF6C1",
"*. c #FDF7C2",
"=. c #FFF8C1",
"-. c #FFFAC1",
";. c #FFFBC1",
":. c #FFFAC2",
">. c #FFFCC1",
",. c #FEFDC1",
"<. c #FFFDC1",
"1. c #FFFCC2",
"2. c #FEF7CE",
"3. c #FFFDC8",
"4. c #FFFDC9",
"5. c #FFFBCE",
"6. c #FFFDCE",
"7. c #FFFDCF",
"8. c #FFFECE",
"9. c #FFFED5",
"0. c #FFFFDC",
/* pixels */
"                                                                                                                                ",
"                                                                                                                                ",
"                                                                                                                                ",
"                                                                                                                                ",
"                                                                                                                                ",
"                                                                                                                                ",
"                                                                                                                                ",
"                                                                                                                                ",
"                                                                                                                                ",
"                                                                                                                                ",
"                                                                                                                                ",
"                                                                                                                                ",
"                                                                                                                                ",
"                                                                                                                                ",
"                                                                                                                                ",
"                                                                                                                                ",
"                                                                                                                                ",
"                                                          e e e e                                                               ",
"                                                      t u ^ o.4.%.A y                                                           ",
"                                                  e t ! ) R T R W %.@.y e                                                       ",
"                                                A ^ ' T I P G G P P R <.Y 4                                                     ",
"                                              e %.W T I P G G G G G I R 4.( ,                                                   ",
"                                            u ^ I I I I E 6.K G D G G P T X.B 4                                                 ",
"                                          e ^ R I I I I 6.0.:.K S D G P T X.B B ,                                               ",
"                                          r o.T I T I I R :.G G %.J G G T X.B m B ;                                             ",
"                                        6 L 4.R T ' I I P K G G J B G G T X.B m B ;                                             ",
"                                        7 L <.W I I I P G D D S B B G G T X.H C m B *                                           ",
"                                      1 L S E ' I I P G D S S B B B G P T X.{ { m B *                                           ",
"                                      1 P S J :.R I P G G G :.J G G I R ! q p p L S *                                           ",
"                                      1 S B S K <.R I P G G K D P P R <.k 2 2 2 1 B *                                           ",
"                                    6 B B S B B K :.o.R T T T T R o.#.l < < - - < 2 M X                                         ",
"                                    6 B S P m m S K 6.+.X.X.X.X.o.6.z 3 < < - - > < M X                                         ",
"                                    6 B P I L m m B K 6.I I I T ! c < < < : - - @ , p X                                         ",
"                                    6 B N P m n b h J 5.I I T ' j L 2 < < : - - @ , p X                                         ",
"                                    6 B b b b b x d B B 6.W { Z i N 4 < - - - @ @ , p X                                         ",
"                                    6 B d d d d ^ H B B 9.+./ j w i F 4 : - - @ , 2 p X                                         ",
"                                    6 B d d B H H S P P J 6.N i w w N 1 < > O @ 2 9 .                                           ",
"                                    6 B B B H ^ ) U h h v 5.i w 3 w a L 2 < @ , 2 p .                                           ",
"                                      # Q ~ L h s s p p x { w 3 3 3 i N 9 2 < < 8 X                                             ",
"                                      # V x h p p p 9 p x { w 3 3 3 w i N 3 < 2 i X                                             ",
"                                        % g h p p 8 8 8 h P 0 , 3 3 , w N e 2 9 .                                               ",
"                                          % L h 8 8 8 8 h P 0 , 3 3 , w p N 2 p .                                               ",
"                                            & F s 9 8 8 h P 0 , , , , w i B g =                                                 ",
"                                              & L f 3 3 h D w w , , 0 w i b =                                                   ",
"                                                & F d d h D i w w w w w g =                                                     ",
"                                                  & b b m D b i i b b b =                                                       ",
"                                                    % g N B B B N N % %                                                         ",
"                                                      % ; N B B ; =                                                             ",
"                                                          * * *                                                                 ",
"                                                                                                                                ",
"                                                                                                                                ",
"                                                                                                                                ",
"                                                                                                                                ",
"                                                                                                                                ",
"                                                                                                                                ",
"                                                                                                                                ",
"                                                                                                                                ",
"                                                                                                                                ",
"                                                                                                                                ",
"                                                                                                                                ",
"                                                                                                                                ",
"                                                                                                                                ",
"                                                                                                                                ",
"                                                                                                                                "
};
