/* XPM */
static char *_102f14d16d640deda3739cf0eae24e6gWtTprUVcsZGGaQc[] = {
/* columns rows colors chars-per-pixel */
"64 64 178 2 ",
"   c None",
".  c #3C1C0C",
"X  c #3F210C",
"o  c #421F0C",
"O  c #45200A",
"+  c #4B250C",
"@  c #4F280F",
"#  c #542A0E",
"$  c #5A2D0E",
"%  c #5F310F",
"&  c #472310",
"*  c #4C2613",
"=  c #4E2912",
"-  c #4D2719",
";  c #4E2819",
":  c #532513",
">  c #582711",
",  c #532A15",
"<  c #5A2D15",
"1  c #542B19",
"2  c #5A2E19",
"3  c #5E3112",
"4  c #5D311A",
"5  c #62320F",
"6  c #622E15",
"7  c #622F18",
"8  c #623312",
"9  c #693516",
"0  c #663813",
"q  c #6B3916",
"w  c #64341A",
"e  c #6B351A",
"r  c #673C1B",
"t  c #6C3A1C",
"y  c #72361B",
"u  c #733B1C",
"i  c #7B3D1E",
"p  c #5C3A26",
"a  c #5D3D2B",
"s  c #653721",
"d  c #663822",
"f  c #6C3B21",
"g  c #603E2C",
"h  c #723D22",
"j  c #7C3E20",
"k  c #75411E",
"l  c #7D411E",
"z  c #5F402E",
"x  c #6F4124",
"c  c #63432C",
"v  c #754223",
"b  c #7C4322",
"n  c #7C4925",
"m  c #76432A",
"M  c #7A4428",
"N  c #7D4C29",
"B  c #6F4A31",
"V  c #7D5234",
"C  c #7E5439",
"Z  c #7E583D",
"A  c #813F1F",
"S  c #83431E",
"D  c #834423",
"F  c #8C4623",
"G  c #814B25",
"H  c #8C4A25",
"J  c #834D2A",
"K  c #8C4D29",
"L  c #904723",
"P  c #924B25",
"I  c #994E27",
"U  c #954E29",
"Y  c #994F29",
"T  c #85522C",
"R  c #8A552E",
"E  c #8D582F",
"W  c #945027",
"Q  c #95522C",
"!  c #9C532B",
"~  c #815536",
"^  c #8B5731",
"/  c #8D5A32",
"(  c #815639",
")  c #845A3D",
"_  c #8B5D3C",
"`  c #9B5631",
"'  c #925D34",
"]  c #9D5A32",
"[  c #915F39",
"{  c #A2562C",
"}  c #A5592E",
"|  c #A85A2E",
" . c #A05730",
".. c #A45C32",
"X. c #AA5D31",
"o. c #8E603D",
"O. c #966137",
"+. c #94613A",
"@. c #9B653C",
"#. c #9E683E",
"$. c #A66236",
"%. c #AC6134",
"&. c #A76238",
"*. c #AC663B",
"=. c #A16A3F",
"-. c #B26536",
";. c #B56837",
":. c #B16639",
">. c #B5693A",
",. c #B96C3B",
"<. c #845E43",
"1. c #866045",
"2. c #8B6245",
"3. c #87634B",
"4. c #8A6348",
"5. c #946542",
"6. c #986641",
"7. c #966945",
"8. c #9D6B43",
"9. c #966A49",
"0. c #926F53",
"q. c #A46E42",
"w. c #A27047",
"e. c #A67147",
"r. c #A67045",
"t. c #A67043",
"y. c #A97145",
"u. c #A97347",
"i. c #AB7445",
"p. c #AA7446",
"a. c #AF7646",
"s. c #AC7547",
"d. c #AA7346",
"f. c #A37148",
"g. c #A1714B",
"h. c #A57248",
"j. c #AA7549",
"k. c #AE7649",
"l. c #AD774A",
"z. c #AD7549",
"x. c #AF784A",
"c. c #B07749",
"v. c #B0784A",
"b. c #B2784A",
"n. c #B1794A",
"m. c #B47A4B",
"M. c #B37B4D",
"N. c #B17B4E",
"B. c #B47B4C",
"V. c #B57D4D",
"C. c #B47C4E",
"Z. c #B77E4F",
"A. c #B47B4C",
"S. c #B97F4D",
"D. c #B87E4E",
"F. c #B87F4E",
"G. c #B77E50",
"H. c #B9804F",
"J. c #BA804F",
"K. c #B98051",
"L. c #BA8150",
"P. c #BB8251",
"I. c #BC8150",
"U. c #BD8251",
"Y. c #BD8352",
"T. c #BF8551",
"R. c #BF8552",
"E. c #BC8251",
"W. c #C08552",
"Q. c #C18553",
"!. c #C18652",
"~. c #C18653",
"^. c #C08653",
"/. c #C28652",
"(. c #C28653",
"). c #C18551",
"_. c #C08554",
"`. c #C18653",
/* pixels */
"                                                                                                                                ",
"                                                                                                                                ",
"                                                                                                                                ",
"                                                            9.8.w.8.h.7.                                                        ",
"                                                          <.l././././.j.( 4.                                                    ",
"                                                  0.9.8.8.v q././././.8.n M.r.f.4.                                              ",
"                                                  f././.U.b t././././.j.J U./.R.9.                                              ",
"                                                <.@././.U.N #././././.8.T R./.R.o.                                              ",
"                                            4.@.@.J D././.^ #././././.q./ /.D.r.n q._                                           ",
"                                          ~ ' /.H.n m././.q.[ /././.U.O.#./.R.u.R /.P.N )                                       ",
"                                      4.q.G.T v./.q.#.r.q.+.N u.x.v.O.^ u.t./.#.l.R.q.T G.8.1.                                  ",
"                                    _ n q./.u.J P.q.n t w w o + = : = < h n ^ T M.Z.n l./.=.N )                                 ",
"                                  [ /.s.J P._.^ b < > : > 7 : @ . < @ > 6 w 6 w t N @./.u.n Z.Z.)                               ",
"                                V n v./.=.[ ' u > : w > < w O O o O O < w w e 9 6 t J q.J l./.#.N )                             ",
"                              6.H.q.J B.u.u 9 w 6 > 6 < w u O O & O o w y y e e w u t u O.R.q.b q.q.1.                          ",
"                            ( / s./.v.T k 9 e y w 6 w 7 u j + + = + + u j D i i u b v u k @.T p./.U.T                           ",
"                          3.q./ n #.l.i u u u i u e y y b D # # : # # i D H D D j H D i j u 8._.q./ Z.~                         ",
"                          _ R./.q.T n b b b D D i y i u D D 8 < < 9 < b H Q F H D Q K H D i v @.q.H./.u.                        ",
"                        2.b T u.U./ D K K F K H D i A i H K $ $ < $ $ D U ! H U H ` ! W U D i T R.R.q.T )                       ",
"                        6.c.[ R R k K ! ! H Q U H A D j U Q $ $ 3 $ $ F Q ..U ! U %...` ! H D v #.E R ' 8.                      ",
"                        #.R./._.R b l ....U { ! P D F D Q } 3 3 w 3 % F ! X.{ ..! :.*.%...` i H J P.R.P.#.                      ",
"                      <.n J O.s.v H ` *.%.! ..} I F F D ! ..9 8 w 9 8 F { %...X.{ >.>.*.%.%.U Q G v.#.J T Z                     ",
"                      o.P.u.=.R e K %.>.-.} X.| Q F F F { X.9 8 w 9 8 H { -.X.X...,.,.>.;.:.Q ` i N @.#.U./                     ",
"                      +.R./._.N 2 t i ,.;.| %.X.Q F F F { X.8 8 w 8 8 P { -.X.X...>.,.>.>.>.b t 2 ~ R.v.P.^                     ",
"                      n n J ' t 1 4 ] >.;.W W k 8 e D D { X.8 8 w 8 8 W } ..} l w k Q ] >.;.Q f 1 x O.J n T                     ",
"                      l.H.u.u.t 1 4 J G ] u u q t 9 u 3 Q X.8 8 w 8 8 P Q 9 b u t u k t ] J G s 1 t #.s.Z.Z.V                   ",
"                      v.c.U.Z.t 2 1 2 < 3 3 u t w w w < h D q 9 w t 0 l i 3 w w w t v w 3 4 2 1 1 t P.P.H.v.V                   ",
"                      J n R R t 1 s w , 4 < b h w < w * Q } 8 8 w 8 8 H Q , w w w b J w 4 1 4 d 1 w R J n n V                   ",
"                    ) P.P./.Z.f 1 2 *.` *.b w 2 , 2 D y ! } 8 3 w 8 8 P ! H Q t 1 1 w n ,.] ` w 1 w v.B.c.R.)                   ",
"                    ) P.U.U.v.t 1 1 v ,.-.! } Q e D L F ! } 5 8 w 5 8 P { X.{ ! h ] >.>.,.>.i 4 1 4 #.s.l.q.V                   ",
"                      / [ ' / t 4 J Q ,.-.} } | Q F F F ! { 0 8 w 0 8 L ! | { } } ,.,.,.,.>.K D w 8 ' O.#.=.)                   ",
"                    ) P././.U.k u ` >.,.%.{ { | I F F F ! ! q 8 w t 8 P ! } { } } >.,.,.,.-.{ { D e Z./././._                   ",
"                    Z 8.v.q.=.u u Q S ,.%.{ { | Q L L F Q ! 5 8 w 8 8 P { { { } } >.>.,.,.%.i { j 9 @.@.O.#.~                   ",
"                    4.' ' ' O.u t ! :.,.X.{ { | ! F P F I ! 5 8 w 8 8 H { { { } } ,.,.>.,.X.! ! i 9 q.u.#.u.V                   ",
"                    ) R././.U.b e Q >.,.X.! ! | ! F L F U ! 5 8 w 8 8 P { { { } } ,.,.,.,.X.{ ! i 9 B.u.R.P.(                   ",
"                      u.u.s.O.t u Q *.,.X.I ! } Q F D F U ! 0 0 w q 0 H { } P ! } ,.,.,.,.| ! ! i 9 T N T T V                   ",
"                      @.@.@.u.u u Q F ,.X.P ! } ! l 4 < U ! 0 8 w 0 8 P { Q t : } >.,.,.>.| i ! i 9 p.v.Z.u.Z                   ",
"                      P._._.Z.u u ! >.,.X.I { } P 8 4 = D ! 8 8 w 5 8 H Q v r X D %.,.,.;.| P ! i 9 r.P.p.u.C                   ",
"                      / E ' R t e Q >.,.X.! { } u = 4 < t H 5 8 w 5 5 H G = w = k D ,.>.;.| P Q i 9 T ^ ^ R (                   ",
"                      q.v.D.P.v e ! ..>.X.{ { ! 3 w j D n e 5 8 w 5 5 F q < D K T > ,.>.;.| P ! i 9 P.D.U./._                   ",
"                      B./.U.Z.n w Q F >.%.} { ! 8 t H ` w t q 8 w t 8 H 9 9 Q ..v < ,.,.>.X.S Q i 9 M.A.t.Z.)                   ",
"                      ' [ ^ E u e ! >.>.%.} { | u < t 4 = K 8 8 w 8 8 H b > t t & J ,.,.;.X.{ I i 9 ' O.' / (                   ",
"                      Z./././.n e Q >.,.%.} ! | I e < w H { 8 8 w 5 8 H { D 4 w D ,.,.>.;.X.{ I y 9 H././.P.V                   ",
"                      l.Z.m.v.b u Q *.>.%.} ! X.! F H L Q { 8 8 w 8 8 H { } ..} } >.>.>.;.X.! Q y 9 r.D.Z.u.Z                   ",
"                      [ ' O./ t t R S >.%.} { | ! F P P Q { 0 8 w 0 0 P { } | } } >.>.>.-.X.S Q u 9 ^ R T O.(                   ",
"                    ) R././.P.v w K $.;.X.} { | ! F P P Q { q 8 w q 8 P { | { { } >.;.>.-.| ! K w 8 B.R.P.R.(                   ",
"                    C #.=.=.O.t 1 w q :.%.{ {  .D F I P Q { 8 8 w 8 8 P } | { Q H $.;.>.-.X.i w 1 < T / ' / (                   ",
"                    <.#.q.=.q.t 1 2 &.%.%.H l t 8 9 H b U { 8 8 w 5 8 Q } H Q u w t G K :...! w 1 4 q.s.v.Z._                   ",
"                    ) P././.U.f 1 4 f t b t i v t e u 3 H ! 8 8 w 8 8 Q ! 8 u t t n G u b t t 4 1 4 Z.R.P._._                   ",
"                    Z / @.' / t 1 1 2 , < 3 t w 3 w 8 < t D 9 9 w q 0 D j < 8 3 w w u w < < 2 1 1 w ' / ^ ' V                   ",
"                    2.v.s.v.M.v 1 w M w v w f f w 2 u : K { 0 8 w 9 8 ! ! < t w d h m w M 2 h w 1 w Z.P.D.P.(                   ",
"                    ) R././.H.f 1 2 &.%.X.l e w * w H D I { 8 8 w 8 8 ! } Q U u , 2 v K -.! Q 4 1 w l.@.v.v.~                   ",
"                      ^ R ' R w 1 1 8 >.X.{ L { F L I L Q { 5 8 w 8 8 ! } } ! ! K %.-.>.;.} e , 1 4 ^ T T ^ V                   ",
"                      l.v.l.Z.t 2 n ` >.X.{ P } { L P F Q ! 5 8 w 8 8 ! } } ! { | -.-.>.;.| U b 6 w s.P.U.l.Z                   ",
"                      v.B.Z.u.t e D H >.X.! D ! ! L F S Q ! q 0 w t 0 ! } } H Q X.-.%.F -.X.S F e 9 ' #./ O.Z                   ",
"                      R R / ' t e b K ..! L i U P D D j L Q 3 3 w 3 3 U Q ! S P ! ..! H ..Q S i e e O.O.#.@.)                   ",
"                      B./._./.b w w i i u 9 9 q 9 6 6 6 9 9 + + @ + + 9 q q 8 q e u t u u e 9 6 7 e D./.R./.2.                  ",
"                      u.v.u.q.v 1 < < t 8 8 q 3 8 t 8 8 0 8 q 3 0 t 3 5 t 8 9 9 8 0 8 8 9 3 < w : w #.#.' =.~                   ",
"                      #.q.=.q.v - - - , < 3 3 3 8 3 8 8 % 8 3 3 0 8 3 8 5 8 8 3 8 3 8 3 < 1 - - - 4 u.v.s.q.(                   ",
"                      Z./././.v - - - - - - , < < 3 3 3 3 < < , 4 , < < 3 3 3 3 < < , - - - - - - w U././.U.V                   ",
"                      +.+.7.7.V g a a a a a p     p p p p a a a c p   p p p p a a g a a a a z a a B 5.8.7.+.                    ",
"                                                                                                                                ",
"                                                                                                                                ",
"                                                                                                                                "
};
