/* XPM */
static char *da9c51e46d6c44bf9bcda00429621022CrOA65VHVbOArtUy[] = {
/* columns rows colors chars-per-pixel */
"64 64 21 1 ",
"  c #FBB4BF",
". c #FEB6C3",
"X c #FDBAC5",
"o c #FFB8C6",
"O c #FCBAC6",
"+ c #FBBCC6",
"@ c #FDBCC4",
"# c #FCBCC5",
"$ c #FDBEC7",
"% c #FEB7C9",
"& c #FBBBC9",
"* c #FEBBC9",
"= c #FBBCC8",
"- c #FDBFC8",
"; c #FFB8CC",
": c #FDBBCC",
"> c #FDBFCC",
", c #FCBECE",
"< c #FEC1C9",
"1 c #FEC0CC",
"2 c #FFC0D0",
/* pixels */
"-$$$-$$$->-------->>$--$---<<<<---<---->111121<1111111112111<111",
"$$$$-$--$---$$--$$--$$>>---<----------->1--->---1-->--1111--<---",
"$X$$$$**X$$-$$--$$$$$$->---$$$----$$---------$->>----------$$---",
".$$$$$**X--&-&&---$$$$$$$$$$$$$--X-$--$$-----$$->-$--$----------",
".$..$$$X$$$+**$$$$-*X$$$$$X$+$$$$$$$-$----$+$$$$--$$----$-------",
".X..X$$X$XXX***XX-$$$$$$$$X$+$$$$$X$-----$$$$$$$-$$$$$$$$$$$---*",
"......XX$X$X%%%XXX$XXX$$$$$$$$$$$$$$$$$$$$$$$$$+$$$-$$$$--$$$---",
"......XX$$$XXX$$XX$$XX$$$$$$$$$$$$*$$*X$$$$$----$$+=----->-$$$--",
"......XXX$X*%oX$$$$$;$$$-$X$$$$$$$$$$$$$+--=@-&-+$$$$$$$$$--$$$-",
".....o$$$$$$XXXX$$$$;$$*$o$*X$$$$X$$$$$$$$-->-$+$$$$$$$$$$--$$--",
"....oo$$..$XXoX.X$$$$$$X$$**XX$$$$$$$$$$$$$$-$->$$$$$$$$$$--$$$-",
"....ooo...XXX$$$*X$$$$*X**=*XXX$$.$$X$$$X$$$$**-$$$$$$$X$$$-$$$$",
"........oX$*X*$$&*XXXXXXXXXX.XX$$$X$&-+--$$$$$$$$++$$$$$$$$--+=-",
"......$.XX$*X$$$%*$XX$oo$XX$$o$$$XXX$$$X$$XXXX$$$$$$X$$$$$$-$$$$",
"....$$$$$$$XoX$$XX$$$$XX$$X$$$XXXX$$XXooXoXXoooX$$$$XX$$$$$-$$XX",
"....$$X$$$$*XX$$$$$$$$*$$$**$$$$$$$$$$XX$XX$XXX*$$$$$XXX-$$--X&-",
"...X$$$$o...$XX$$$$.$$$$$$$XX$$$$$$$*XXXXXXo$$$$*$$.$$$$*X$-$$+*",
".....$$X.XX$$XX.$$XX$X$.$XX.....XoX$XXX$$$XX$$$$$$$$$XX$*$$----*",
".....XXX....XXoX$$.XXX$.XXoo....XoX$X$$$oooX$$$$$$*$*X$$$$$---&*",
"...X.oXX....XXo.$...X...*$XX$..$X$$..$$X$XX$$$$$+$X*&*$$$$$--$$*",
"..........$.XXooXXXXooX$XX$$$$++$$$XXX$$X$XXX;&+$X$$$$$-+-$$-$$*",
"..........$$XXoX$$XXXX$$.$.$$$$+$$$XXXX$$$++$-&$$X$X$$$*+-$$-$+-",
"...........$XX$$$$$X$$$X$X$$$$$$X$$*XX$$-$$+$-$$$$$**$$$-$$$----",
"....$...$.$$*$$-$$$$X$XX$$$=$+$$-*$$$$$$$$$$-$$$$$&**$$+-$$$->>=",
".....$$.$X$X$*$$$$$$X$$$$$X$$$$$$$$XX-$$$$$$X*$$$$X*$$$$+$$$--**",
"....$$$$$$$+$**$$$$$$$$$$$$$$+X$$$$$ooXX...$=-X$$-&;$$$$$$$$=->>",
"....$$$$XX$+$*XX$$$X$$$$$$$$X$$XXXXXooo$$$$$=$$$$--&$$$$$------=",
"...$$$$$XX$$$$*X$$XXX$$$....XXXX$$$$XX$X$+$+X*$*---$$$+$-------+",
"...$$X$$+X$$$$$$$$*$.XX*$$$$$**$$$--XX-$-$X$X-$$$$$**$$$+$$--$$-",
"..X$XXX$$$$$$$$$$$$*$$--*$$$$**$$+$$*&--XX$$$$$$$$$-$$$$$$$$--$-",
"...$X$X$$$$+X$+$-$X$+$$$--$$--$=$$$X----$$-$$--$$$$+$$$$$$$$--->",
"..X$$$XX$$$$$$$$--$$=$$$-$$X-$$$$$$$X$$$$$->*--$+$$$$$$$$$$$-$-;",
"..$$$$$$*$$=$$$$-$$$-$$$$$$$$$$+$$$$$$$$$$$$$$$$X$$$$$$$$$--$--+",
"..$$++--$$XX$$$$$$$$$++$$$$$$$$-$$$$$$$XX$$$$$$$+$$-$$$$$$---->-",
"..$$XX---$$$$$$$$$$$$$$$$$$$+$-+$$$$$$$+X$X$$$$$$$--$$$$$$----->",
"..$$X-**-$$$$$$$$$++$$$**---$----+--$$$$XX$$$XXX$$--$$$$$$$--$->",
"..$$$-$$$$X$+--+$$$$$X-$$$$+++++----$$$$+X$$X$+-$$$$$$$$$---->>+",
"..$X$$$$$$$$$--$$$+$X--$$$+$$---$$$$$$$$$+$$$$$-$$$$$$$$$$--$->>",
"..X$$X$-$$$X+--$$$-X$*$$$$$X+++++$$$$$$$$$$$$$+-$$$$$$$$$$$---->",
"..$$XX*X+$$$$---$+$$$*-$$$$X+$--$$$$$$$$$$$$-$$-$$$$$$$$$$$$>-<-",
"....XX$$$$--$$X--$X$--$$++$$$$$$$$$+$$$$+$$$$$$$$$$$$$$$$$-->->-",
"....o$$$$$$-$$--$X---+$$$+$$$$$$$$$$$$$$$$$$$$$$$$$$----$$$->->-",
"....o$X$$*$$$***$X--$$$$$$$$$$$$$$$$$$$$$+$$$$X$X$$$----$$--=->-",
"....XXo$*$$$-$$**&--$$$$$$$X$*--$+++$$$$$$$$$$$$----$$$$$$---$>-",
"..$XX$$$XXX$$$+$$$$$+$$X$$$$X$$$-$$$$+$$$$$$$$$$-------$$$$-=---",
"..XX$+$$XX$=$$$$$$$$$$$$+$$$X$$$$$$$+$$$$$$$$$$$$$$$----$$$->>-$",
"..$$-*$$XX$$$$$$$$$$+$$*$X$$$$**$$--$$$X$$$$$X$$$$--**-$-$$-=>>-",
"..$$$$$$$X$$$$$$$$$+$$$$$$$$$$$*$$--$$X$XX$$$XX$*-=-$$$$--$$+>>>",
"..$$$$$$+$+$$***$$$+$$$$$$$**$$$$$&=$$X-**$$$$-$----$$$$$------>",
".$$$$$$$$$$$$-$$$$$$$$$$-$$--$$---$$$$$$$***$$$$$$$$$$$$$--->-->",
".X$$$$$$+$$$$-+$$$$$----$$---$$---$$-=+$$$-->>>&X--+----$$$->=->",
"..$$$$$$$$$$---$$$$$++++$$$--$$-$-**>-$$$$**$$$+->>>----$$$$--->",
".$$$$-----$$->>---$$--$$$$X$=-->*&-X**$-$$---+$+==-->-$---$$$-->",
".$$$$$----$$-----------$--&&-$$=*-------$$+-**-------------$-->>",
".$$$$$$----$---------$---X*--$$$$----*$*++X$&&&+------$$------>>",
".$$$$$$$-$$$>-------$--&$$$+;-**$--$->$*-$$$-$+$$$$$$--$->-->>>>",
"+$$--$$$---------$>>----$$--=-$$*$----$$*$$-$$-&--$-$$$-$-->-1>-",
"+$$$---$-------$-$>-$--$$$---*--*$*-$$$*>$$$$-----------$---->>>",
"+$$$---$>-$----$*$>-$$$$$$$$*---*$$-$$$*&$$$$--*>------$-----1>-",
"$-$$$-$$>-$$$>-$*$--$$$$--$$-*$$*$$$X$$*-$$-$$X->-$$>--$-$$-->>1",
"-$$$----$$$$+-->&*--$$$-**$.XXXX.XX$$Xo$**+$+-**=---++++=--->>>>",
"$--$$$$$$$$$$$$****X$$XXXXX.......XX.Xoo$-$$$$Xo$$-$$$$$--$**>>-",
"$$$*$$$X$$.....XXXXXX..XXXX........X.....XXXXX..X$$$....$$$$o$$-",
"$$$%X%*$...................X.... ...........X...........$$....XX"
};
