/* XPM */
static char *_caf2179e84a46e9b159f57fa576a222xrjnrG6tyO95A2EY[] = {
/* columns rows colors chars-per-pixel */
"64 64 247 2 ",
"   c None",
".  c #2F3132",
"X  c #5D1011",
"o  c #6C0203",
"O  c #690408",
"+  c #740203",
"@  c #760306",
"#  c #791516",
"$  c #6E0F14",
"%  c #523510",
"&  c #6A3011",
"*  c #533333",
"=  c #662934",
"-  c #521E2F",
";  c #3E4936",
":  c #7D5D0B",
">  c #634A18",
",  c #774917",
"<  c #7C5D13",
"1  c #775D16",
"2  c #6D5B1C",
"3  c #7A6209",
"4  c #7C6516",
"5  c #7C7514",
"6  c #585234",
"7  c #50482B",
"8  c #6A4E25",
"9  c #744C2A",
"0  c #744F23",
"q  c #6C5425",
"w  c #6C562A",
"e  c #73522A",
"r  c #754B38",
"t  c #695638",
"y  c #74573B",
"u  c #664A35",
"i  c #7E672D",
"p  c #072B4A",
"a  c #132B48",
"s  c #1A2959",
"d  c #183558",
"f  c #0C3050",
"g  c #313848",
"h  c #2A364D",
"j  c #16376C",
"k  c #2C2F73",
"l  c #273378",
"z  c #323071",
"x  c #51285E",
"c  c #603757",
"v  c #344650",
"b  c #35496F",
"n  c #3A647E",
"m  c #565455",
"M  c #514E52",
"N  c #645C55",
"B  c #6A4E4F",
"V  c #6F624C",
"C  c #48596B",
"Z  c #595B69",
"A  c #545A73",
"S  c #4C4F76",
"D  c #645E6C",
"F  c #596579",
"G  c #506774",
"H  c #6B6C6F",
"J  c #5B605A",
"K  c #8C0405",
"L  c #9A0202",
"P  c #960208",
"I  c #9A1316",
"U  c #881514",
"Y  c #A60507",
"T  c #B90406",
"R  c #A20D16",
"E  c #8D2A09",
"W  c #8A2A2E",
"Q  c #AD3930",
"!  c #9B2022",
"~  c #CA0509",
"^  c #D10301",
"/  c #CE0112",
"(  c #D93417",
")  c #8B5C0E",
"_  c #855909",
"`  c #845C13",
"'  c #8A5B13",
"]  c #865917",
"[  c #945B0F",
"{  c #82620B",
"}  c #8B650C",
"|  c #95650B",
" . c #846513",
".. c #8B6413",
"X. c #8C6C14",
"o. c #88671A",
"O. c #956A17",
"+. c #9A7718",
"@. c #A57A1B",
"#. c #B07E1D",
"$. c #955A20",
"%. c #8B5628",
"&. c #AB5837",
"*. c #8C6623",
"=. c #966C27",
"-. c #997525",
";. c #987837",
":. c #886735",
">. c #A17B38",
",. c #A47129",
"<. c #C54D1A",
"1. c #C05135",
"2. c #D36D25",
"3. c #924E56",
"4. c #B05A52",
"5. c #977546",
"6. c #8A6F53",
"7. c #B56D47",
"8. c #B07C4E",
"9. c #877669",
"0. c #92706B",
"q. c #A66B6E",
"w. c #C56154",
"e. c #AC841C",
"r. c #AD8A1D",
"t. c #A5851A",
"y. c #B2881D",
"u. c #AC9319",
"i. c #B3951D",
"p. c #9F8123",
"a. c #AA8724",
"s. c #B38423",
"d. c #B48D24",
"f. c #B88B2B",
"g. c #B99627",
"h. c #B1912C",
"j. c #BFA22C",
"k. c #C6992A",
"l. c #CC942C",
"z. c #C9A32B",
"x. c #D5A82B",
"c. c #CDA834",
"v. c #D5AA32",
"b. c #DBB736",
"n. c #DAB32F",
"m. c #ECBE3C",
"M. c #E6B837",
"N. c #F2BD3B",
"B. c #E1AF34",
"V. c #DEC63C",
"C. c #EDC236",
"Z. c #ECC23C",
"A. c #E5C437",
"S. c #F2C23D",
"D. c #F0C132",
"F. c #EFC22D",
"G. c #9B8856",
"H. c #998852",
"J. c #A68A57",
"K. c #B68B52",
"L. c #918573",
"P. c #B89E6C",
"I. c #AF8F6C",
"U. c #C9985A",
"Y. c #D18E56",
"T. c #EBBD44",
"R. c #F2BD42",
"E. c #F5BC4A",
"W. c #CA9C68",
"Q. c #D69A68",
"!. c #C58A6E",
"~. c #E2976C",
"^. c #D2AB70",
"/. c #E6A46B",
"(. c #E9AC78",
"). c #E5B378",
"_. c #E7B868",
"`. c #D9B35F",
"'. c #ECC343",
"]. c #E6C347",
"[. c #F3C342",
"{. c #F6C444",
"}. c #F1C450",
"|. c #DAC06F",
" X c #273C88",
".X c #303A8A",
"XX c #293C94",
"oX c #443181",
"OX c #36478D",
"+X c #3A5997",
"@X c #2B4D8D",
"#X c #38628E",
"$X c #3752A9",
"%X c #3B69A4",
"&X c #4E558A",
"*X c #546D88",
"=X c #6C7589",
"-X c #757B84",
";X c #6D7793",
":X c #426CA3",
">X c #4573A9",
",X c #5B69A3",
"<X c #7B8999",
"1X c #71838F",
"2X c #7389A4",
"3X c #6A84A2",
"4X c #968A82",
"5X c #90938B",
"6X c #A88D8C",
"7X c #B9A38A",
"8X c #B6A994",
"9X c #8995A7",
"0X c #8B98BC",
"qX c #9194A5",
"wX c #B097A4",
"eX c #96A6B6",
"rX c #AEB1B1",
"tX c #CC9188",
"yX c #CEB48A",
"uX c #EAB886",
"iX c #EEAF84",
"pX c #FE89A3",
"aX c #C6B8A3",
"sX c #C2B6BA",
"dX c #FA8399",
"fX c #D2C795",
"gX c #F4D89B",
"hX c #F0CB8D",
"jX c #D6CAAC",
"kX c #F5D8A6",
"lX c #F0D6AF",
"zX c #F3E3B1",
"xX c #98B2C8",
"cX c #A9B5D1",
"vX c #B9CADE",
"bX c #BFC5C4",
"nX c #BEC9E2",
"mX c #D8D7D3",
"MX c #E8DCD9",
"NX c #EDD8CA",
"BX c #EFE6D2",
"VX c #D6DDEB",
"CX c #EBEBE5",
"ZX c #EEF9FB",
"AX c #FDFCFE",
"SX c #FAF7F7",
"DX c #FAF3ED",
/* pixels */
"                                                                                                                                ",
"                                                                                                                                ",
"                                                                                                                                ",
"                                                                                                                                ",
"                                            H.5.;.;.;.                    jX>.;.;.-.                                            ",
"                                            =.o. ...O.P.                MXjX..X.X.| |                                           ",
"                                        J.] t.i.S.v.#.| _ ` *.AXAXAX;.3 _ O.d.z.b.g.r.:                                         ",
"                                        J.` fXjX( 2.n.@.) +.a.>.;.;.a.t.' 5.NX~.( l.b.] ;.                                      ",
"                                        I.' tXtXT <.k.e.O.g.g.s.e.e.g.j.O.>.aXw.T <.2.' =.                                      ",
"                                      AXP.) Y Y P E ) +.u.b.T.R.C.A.V.V.e.@.3 E L L L ) ` <                                     ",
"                                      =.-.t.' ] [ @.b.lXCX}.M.d.v.S.R.T.CXzXB.y.] _ _ e.+.4                                     ",
"                                    yX..e.z.o...k.z.].zXSX}.M.a.g.c.M.R.SXCXgX`.f.X.3 x.d.< I.                                  ",
"                                  AXjX` d.A.X.X.Z.'.T.zXDX}.M.h.a.t.b.S.SXSXSXgX[.+.3 '.k._ P.                                  ",
"                                  _ | s.+.` M.{.N.N.N.'.'.Z.M.a.z.N.BXAXZXBXC.'.].,.] m.v.r.+.4                                 ",
"                                  ) O.s.-. .k.l.C.x.e.c.].z.k.O.+.t._.).hX|.s.z.A.d.+.S.v.r.X._                                 ",
"                                  ' O.g.-.4 +.@.n.g.{ g.b.k.k...O.-.k.x.Z.v...y.n.r.@.{.n.g.+._                                 ",
"                                  [ @.m.i.3 & , a.+.{ @.h.M.B._ K.iX,.) T.c.1 -.f.X.{ T.].].s...                                ",
"                                  _ @.[.z.+.' ' , , < 8 * 6 6 W.^.).y * 6 w { < , ` ` g.c.].a. .lX                              ",
"                                  X.t.'.z.a.X.` & & > N Z v v hXuXuXm g Z m > > & ` ' a.z.Z.d.X.^.yX                            ",
"                                } d.g.m.z.d.4 4 & % . <XvX#Xn lXkXkX*X@XcX9X. % & _ ) t.g.M.k.a.*.*.                            ",
"                              1 < d.k.C.l.s...} u.-.r wXSX#Xn gXgXgXF b AXmX9 =.d...: u.z.[.k.s.$.$.                            ",
"                              o.: r.g.C.k.=.J.P.`.J.r P.lX4X4XkXkXkX6X0.lXyX9 J.fXyX7X+.g.m.k.r...o.                            ",
"                              o.{ u.g.S.f.%.MX    aXi K.Q.(.iXlXkXkXiX(.^.W.6.8XAXAXAX{ e.N.z.i.} ..                            ",
"                              o.< F.D.R.f.3         AX8., Q.~.).).).Q.Y.9 0.AXAXAXAXAX] a.m.Z.C.O...                            ",
"                              o.` C.S.{.f.`         G S S M m 5.5.5.N M S S ;X<XqXCXAX .e.C.C.m.O.o.                            ",
"                              *.` Z.S.[.g.] rXrXqXF p @X$Xf a :.:.6.h p &XOXf C 5XbXmX{ e.C.Z.].O.o.                            ",
"                              *.` Z.S.N.d.3 J -XSXeXf @X%Xd h ~.Q.Q.M a :X#Xp 9XDX1XG 1 p.T.[.[.X. .                            ",
"                              o.3 [.[.m.d.3 w t *X9XMX*Xf .X&X(.).).&X.Xj *XVXeX-XV t _ s.E.[.C.X. .                            ",
"                              o.3 [.[.m.d.3 e y 5X6XtX3.- x c Y.U.K.B x - c 6X6XL.y e _ s.E.R.Z.O. .                            ",
"                              } _ m.m.R.d.3 %.:.zX!.+ Y ~ @ @ _  . .# @ ~ T o 4.).:.q < a.[.R.N.+.X.                            ",
"                              O.) e.k.E.K.B W.).kX!.@ K L + # pXpXdXW O Y L @ &.)./.~.9 ;.C.k.s.}  .                            ",
"                               .{ s.k.E.,.& Q 1.hX8.O L ~ @ # 7.7.7.U o T Y o &./.1.Q & $.F.k.r. .4                             ",
"                                5 s.g.T.,.X ! Q ~.7.X R / # # =.=.=.& $ T Y $ &.Y.Q I X $.F.k.t.*.                              ",
"                                  ` -.Z.G.G CXNXo = F = o ;X0XSXZXZXeX2Xo $ A * O qXcXA L.}.s.`                                 ",
"                                  fX8X9.5XrXDXMXqX=Xd z oX&X&XvXnXvX,XOXz z h C =X9X9X;X-X9.4XjX                                ",
"                                      *X      VXxX*Xp  XXXb &X0X0X0X&XOXXXl a b 3X2X2X2X;XF eX                                  ",
"                                            nXcXC b s j l %X%Xl l l +X:Xk k a b A ;X3X<X1XF                                     ",
"                                          F F A f d k +X%X>X:Xz k .X%X>X%X+Xk d a C F F =X                                      ",
"                                          V H.H.; g s @X$X>X:Xz k l %X>X$X@Xs g 7 6.G.N                                         ",
"                                            M.B.i 7 p  X$X>X:Xk k k +X:X$X.Xp 7 | x.C.                                          ",
"                                                AXaXq . a p p p p p j  Xs h u 4XAX                                              ",
"                                                AX8X8 V 9.9.6.* 7 * 9.L.0.6.q L.                                                ",
"                                                AX8X8 K.(.(.Q.r 9 0 W.uX(.U.2                                                   ",
"                                                ZX8Xe K.iXgXuX9 8 w yXkXuXW.2                                                   ",
"                                                  7Xr K.).L.H D V q yXkX(.Q.q                                                   ",
"                                                  7Xr 6.I.1X1XF N q yXkX(.Q.e                                                   ",
"                                                  8Xr N D xXxXF N q yXkX(.Q.r                                                   ",
"                                                  rXJ 9XxXQ Q xX<XZ F =X/.U.q                                                   ",
"                                                  6X= 3.q.I I 0.D F qXrXL.0.q                                                   ",
"                                                  q.O K L P P O = Z sXMX=XH t                                                   ",
"                                                    O P Y L P + + @ K L AXmXA                                                   ",
"                                                    q.! K P P o + + Y T 4.4.=                                                   ",
"                                                      W @ K K o + + T ~ L K @                                                   ",
"                                                        @ K K O o o T ^ L K o                                                   ",
"                                                            W mXq.O T ^ Y L @                                                   ",
"                                                              SXq.O T ^ K I 3.                                                  ",
"                                                                3.O T ^ o #                                                     ",
"                                                                  O P L o #                                                     ",
"                                                                    U K                                                         ",
"                                                                                                                                ",
"                                                                                                                                ",
"                                                                                                                                ",
"                                                                                                                                ",
"                                                                                                                                "
};
