/* XPM */
static char *_97c6daa52334b92ba04884e8f28520aaJvmbF1dGCsZOXio[] = {
/* columns rows colors chars-per-pixel */
"64 64 242 2 ",
"   c None",
".  c #361D34",
"X  c #2E3033",
"o  c #6C0104",
"O  c #670308",
"+  c #720303",
"@  c #7A0104",
"#  c #72030C",
"$  c #7C0209",
"%  c #690316",
"&  c #770313",
"*  c #7A1518",
"=  c #6E370D",
"-  c #461C3D",
";  c #791D20",
":  c #533B32",
">  c #7C323D",
",  c #795B09",
"<  c #7B5B15",
"1  c #764D18",
"2  c #7B6205",
"3  c #7C630C",
"4  c #796608",
"5  c #796514",
"6  c #6D6904",
"7  c #564930",
"8  c #6E4B29",
"9  c #6C5327",
"0  c #76552A",
"q  c #785836",
"w  c #705030",
"e  c #72613C",
"r  c #0B2746",
"t  c #0F2C58",
"y  c #162C53",
"u  c #15395A",
"i  c #123051",
"p  c #293958",
"a  c #1B326D",
"s  c #293378",
"d  c #2F3274",
"f  c #543347",
"g  c #752461",
"h  c #7F3047",
"j  c #3A4848",
"k  c #364B6B",
"l  c #55554E",
"z  c #73554F",
"x  c #7C6A4B",
"c  c #49597B",
"v  c #4F5A6D",
"b  c #54636D",
"n  c #566468",
"m  c #4E6877",
"M  c #55637A",
"N  c #596776",
"B  c #4A6462",
"V  c #656F76",
"C  c #8B0303",
"Z  c #880408",
"A  c #950304",
"S  c #9D0304",
"D  c #94020A",
"F  c #9B020B",
"G  c #9D0903",
"H  c #8B0913",
"J  c #9F0412",
"K  c #84171A",
"L  c #92191F",
"P  c #A70407",
"I  c #B30206",
"U  c #AD0913",
"Y  c #852729",
"T  c #953135",
"R  c #A02820",
"E  c #CB0304",
"W  c #D80305",
"Q  c #E33E3D",
"!  c #845D0B",
"~  c #845B09",
"^  c #845B14",
"/  c #875B18",
"(  c #985012",
")  c #83630C",
"_  c #8B620C",
"`  c #8B6B0D",
"'  c #856905",
"]  c #93740E",
"[  c #846212",
"{  c #8C6514",
"}  c #8A681A",
"|  c #936B14",
" . c #936B1A",
".. c #946617",
"X. c #887116",
"o. c #937313",
"O. c #9B7915",
"+. c #9C741B",
"@. c #96741A",
"#. c #906F0E",
"$. c #A57B1D",
"%. c #A67818",
"&. c #875E33",
"*. c #8D522B",
"=. c #8A6827",
"-. c #966C23",
";. c #977527",
":. c #87643A",
">. c #977A39",
",. c #8D772D",
"<. c #A57A24",
"1. c #B07D24",
"2. c #B2493D",
"3. c #E54A1B",
"4. c #934C50",
"5. c #856A49",
"6. c #986B45",
"7. c #8A6956",
"8. c #A67947",
"9. c #A67F5C",
"0. c #815968",
"q. c #AD5C68",
"w. c #917674",
"e. c #B3726F",
"r. c #A14958",
"t. c #E04141",
"y. c #E6596C",
"u. c #AB831D",
"i. c #A9881A",
"p. c #B3871B",
"a. c #9D813C",
"s. c #AA8628",
"d. c #B48C22",
"f. c #B68B27",
"g. c #BA9527",
"h. c #A68537",
"j. c #BA9131",
"k. c #B38F2F",
"l. c #C79929",
"z. c #C59B33",
"x. c #D58329",
"c. c #CCA12B",
"v. c #D4A62B",
"b. c #CBA634",
"n. c #DBAC33",
"m. c #D5AA35",
"M. c #DCB33A",
"N. c #D8B535",
"B. c #EBBD3C",
"V. c #E6B739",
"C. c #F5BB3B",
"Z. c #E6C43D",
"A. c #EBC23B",
"S. c #E8C337",
"D. c #F3C33C",
"F. c #ECC22B",
"G. c #A68A4B",
"H. c #B68148",
"J. c #BB8B5C",
"K. c #A88F58",
"L. c #908374",
"P. c #AD906F",
"I. c #CD9657",
"U. c #D4AB4C",
"Y. c #EBBE44",
"T. c #E8B945",
"R. c #F5BA45",
"E. c #C99666",
"W. c #D99D67",
"Q. c #CA8D73",
"!. c #E79B68",
"~. c #E19873",
"^. c #D7AE73",
"/. c #E9AB78",
"(. c #E6B27B",
"). c #EEA56F",
"_. c #E09247",
"`. c #EDC344",
"'. c #ECC146",
"]. c #F3C243",
"[. c #F5C549",
"{. c #EECF6A",
"}. c #2A3C88",
"|. c #343E8D",
" X c #333693",
".X c #29448A",
"XX c #344499",
"oX c #3246AC",
"OX c #3C6692",
"+X c #49568A",
"@X c #4A5580",
"#X c #596984",
"$X c #54708F",
"%X c #657587",
"&X c #6B7898",
"*X c #72768B",
"=X c #767BA0",
"-X c #4170A4",
";X c #AF7686",
":X c #758592",
">X c #6988A4",
",X c #978983",
"<X c #8F9091",
"1X c #AF9294",
"2X c #BBAC80",
"3X c #BAAF91",
"4X c #808DA1",
"5X c #8A94A4",
"6X c #8D99B5",
"7X c #8C91B4",
"8X c #98AAB7",
"9X c #B7B5AF",
"0X c #C2B68F",
"qX c #C7B99E",
"wX c #D9BA8E",
"eX c #ECB586",
"rX c #E8B98B",
"tX c #CDB8AF",
"yX c #DB8F9B",
"uX c #F4CB98",
"iX c #EFD08C",
"pX c #D5C8A8",
"aX c #C6C2A1",
"sX c #F9D6A6",
"dX c #F1DAB3",
"fX c #F7E3B4",
"gX c #F1E0AD",
"hX c #B1B8D4",
"jX c #8DAAC2",
"kX c #DBB7C0",
"lX c #B7C7D5",
"zX c #B9C1C9",
"xX c #CDD7DC",
"cX c #DADACE",
"vX c #E5DAC9",
"bX c #EDE6E1",
"nX c #F9FBED",
"mX c #F6FBFA",
"MX c #FDFDFD",
"NX c #F9F8F8",
"BX c #E8FDF6",
"VX c #E5E7D8",
/* pixels */
"                                                                                                                                ",
"                                                                                                                                ",
"                                                                    MX                                                          ",
"                                                                  MXMXMXMX                                                      ",
"                                                          MXMXMX      MXMXmX                                                    ",
"                                                  =.,.,.>.>.NXNX      MXvX;.;.;.                                                ",
"                                                   .;.G.( ( pXpX  qXqXpX0X` +.<.                                                ",
"                                              =. .p.^.NXt.W / ^ 5 3 3 ! | k.m.V. .=.                                            ",
"                                              ,.` M._.Q U P ^ +.v.m.N.v.n.T.s./ ~ >.MX                                          ",
"                                            ^.-.` b.x.3.U F ! u.A.{.iXS.A.Y.j.-.%.s.0X2X                                        ",
"                                            < / / i.l.[.R A ~ u.[.fXnXS.A.'.Y.B.F.v.2 2 2                                       ",
"                                          ;.s.u.$.{ { | _ ~ s.l.C.fXmXbXgXT.v.l.C.C.V.z.s.-.-.                                  ",
"                                        3 s.b.$.%.@.+.1.o.] z.n.B.iXfXfXiXm.d.$.v.V.D.M.z. ./                                   ",
"                                        , g.Z.O.) s.z.R.g.i.Z.Z.V.`.`.].V.p.| ^ i.g.Z.Z.Z.-.*.                                  ",
"                                        ! j.Y.O.) s.s.p.n.C.D.M.j.n.C.Z.b./ ;.s._ ` s.b.].%...                                  ",
"                                      G.%.l.Y.O.' d.<.} j.b.A.l...d.c.`.M.+.@.o.) ` s.s.1.{ [                                   ",
"                                    5 5 p.v.R.O.' p. .= ;.k.B.f.= | i.].V.p.#.2 , } k...= ,                                     ",
"                                    3 o.B.C.C.] 4 i.i.p.1 = , X.k.o.) X X X 9./.{ ` i.+./                                       ",
"                                    [ | ].M.z.o.) o.+.d./ 1 H.I.I.:.: :X%Xk L./.=.< o.h.P.                                      ",
"                                    / | ].b.s.;. .-.-.s.| _ !.!.^.7.: lXjX.X,X(.&.0 X.K.                                        ",
"                                    =...S.g.) pXMXMX3X5 $.1.~./.(.uXsXNXlX.X3XsXx 5.                                            ",
"                                  ,.$.f.Y.k.<           =.< :.8.^.(.eXfXdX9XwXrXq q                                             ",
"                                >.< g.c.Y.j.<             :.7 e K.E.).uXuXuX(.E.:.                                              ",
"                                K.[ N.S.'.z./               r r r 7.!.eXeX).8.8                                                 ",
"                              MXP._ N.B.D.l.)           m k y a  Xk j =.=.=.P.cX                                                ",
"                              0XG.o.M.V.n.d.)           :X#X#X+X}.s a :.x l *X6X                                                ",
"                              3 o.u.V.V.p.O.!         n xXmXNX5Xr }.oXQ.;XoXa r                                                 ",
"                              ) d.N.Y.T._ G.          B #X&X*X5XxXM y p p  Xs y                                                 ",
"                              _ g.`.'.T.! G.          l w.L.w.1XzX4X%X. - g f . w.                                              ",
"                              / j.Y.Y.M.! G.          1 I.^.W.P.M zXmXO Z W S + O                                               ",
"                              ! f.D.A.M.! a.          9 wXsX/.J.0 tXNXo C E y.yXL                                               ",
"                            K.+.l.B.m.b.! >.          9 wXsX/.J.w tXNX;Xq.P 2.e.q.                                              ",
"                            } p.c.S.j.s.!             9 wXsX/.J.w tXNXNXkX# = 3                                                 ",
"                          } -.B.A.`.X.X.MX            o D F S C o f k nXcX>X%Xb                                                 ",
"                          [ o.A.A.].} =.nX            f w.;Xq.0.f c OX=X&X+Xk p                                                 ",
"                          ) #.A.B.T.} =.nX            V 6XhXlX6X#X-X-Xs s s a t                                                 ",
"                          ! | D.m.d.3 } MX            MX%XB       :Xb XXXXs |.XXy i                                             ",
"                          { +.R.g.` aXcXMXMX          v b b         9X+X@Xd |.XXu u                                             ",
"                          @.$.m.u.2 bXMXmXmX          v b N           M c s }..Xt u                                             ",
"                          s.<.{ ) , bXMXnX              *XM 7X6X      m c  Xy r r                                               ",
"                           .{ )  .<.G.G.                x w N N %X*X&Xu u t X 7                                                 ",
"                          [ { i.$.<.h.G.                5.9 w.L.,X,X,XX j l 7 0                                                 ",
"                          [ o.D.f.^ vX                  5.8 eXuXsXeX/.1 &.W.8.                                                  ",
"                            } j.<./ vX                MX5.8 sXsXsX(.W.8 &.W.L.b                                                 ",
"                              <. ./ 3X                qX9.6.sXsXuXE.H.6.6.P.,X4X                                                ",
"                              3 2 2 6                 1 I.!.fXuX/.6.1 !.Q.@X6XlX                                                ",
"                                                      c m m n b c M M B V hXr.A # *                                             ",
"                                                    0.> <X8X4X:X%X#XM n n q.R A + *                                             ",
"                                                  M > P tXBXhX8X4X%XM N z S S S + *                                             ",
"                                                  A I W I S P D O tXmXO + F F F # Y                                             ",
"                                              T Y F I W P F Z L       o $ J D D C Z *.                                          ",
"                                              K @ P I E J H * T       K H J D C S A + 4.                                        ",
"                                          4.O F P E I A @ o             1Xo Z F S S G S A                                       ",
"                                          4.O A P W I & e.tX              # D F S F F C +                                       ",
"                                          r.o C G E P & e.tX              & D S A D D H ;                                       ",
"                                            # + @ F S S @ +               # D F + o %                                           ",
"                                                  @ Z A @ o                 T Z                                                 ",
"                                                  Y K Z + o 1X                                                                  ",
"                                                      o % % % h                                                                 ",
"                                                                                                                                ",
"                                                                                                                                ",
"                                                                                                                                ",
"                                                                                                                                ",
"                                                                                                                                "
};
