/* XPM */
static char *ec63b0812fce4eebea7dbb0c6330733etpu8fSBIyfmTWFLl[] = {
/* columns rows colors chars-per-pixel */
"64 64 242 2 ",
"   c None",
".  c #35182D",
"X  c #2B2E39",
"o  c #1E2233",
"O  c #5C0D13",
"+  c #650303",
"@  c #6B0203",
"#  c #6D020B",
"$  c #660A0E",
"%  c #740303",
"&  c #73010B",
"*  c #780203",
"=  c #650A13",
"-  c #700812",
";  c #741916",
":  c #6B111A",
">  c #461323",
",  c #580B23",
"<  c #6F1A24",
"1  c #652A35",
"2  c #672B2F",
"3  c #612820",
"4  c #7C5A06",
"5  c #7B5D14",
"6  c #6C5214",
"7  c #7C620B",
"8  c #786608",
"9  c #7B6417",
"0  c #594B26",
"q  c #664D2A",
"w  c #764C2A",
"e  c #764D24",
"r  c #72522B",
"t  c #745226",
"y  c #794C32",
"u  c #6A5236",
"i  c #7C723A",
"p  c #0A2A48",
"a  c #12254B",
"s  c #0A2D52",
"d  c #122854",
"f  c #163657",
"g  c #253858",
"h  c #163D64",
"j  c #253C79",
"k  c #623747",
"l  c #763A45",
"z  c #18455C",
"x  c #3C4859",
"c  c #254458",
"v  c #174269",
"b  c #264465",
"n  c #354A68",
"m  c #394C76",
"M  c #565254",
"N  c #6D524E",
"B  c #756B53",
"V  c #544D6A",
"C  c #595C69",
"Z  c #5A6773",
"A  c #51646B",
"S  c #6B696D",
"D  c #6F6E72",
"F  c #59605C",
"G  c #8D0305",
"H  c #880508",
"J  c #970405",
"K  c #90171B",
"L  c #A50406",
"P  c #BC0302",
"I  c #B50204",
"U  c #8C2B2B",
"Y  c #B03626",
"T  c #A0251F",
"R  c #C60205",
"E  c #D70203",
"W  c #E2000D",
"Q  c #845D0C",
"!  c #8A5C0D",
"~  c #855908",
"^  c #845E13",
"/  c #895C14",
"(  c #875A18",
")  c #83620D",
"_  c #876409",
"`  c #93680E",
"'  c #846312",
"]  c #8A6214",
"[  c #876818",
"{  c #926E13",
"}  c #946A17",
"|  c #87721A",
" . c #957314",
".. c #9A7515",
"X. c #9A781A",
"o. c #94750E",
"O. c #A4781B",
"+. c #B27F1A",
"@. c #866923",
"#. c #8A7729",
"$. c #977727",
"%. c #997A37",
"&. c #906F2D",
"*. c #A27D22",
"=. c #A97C2A",
"-. c #B47C29",
";. c #B6412B",
":. c #833B41",
">. c #9A4B4F",
",. c #9C7E41",
"<. c #896E55",
"1. c #A27845",
"2. c #B3794D",
"3. c #89636C",
"4. c #A56F72",
"5. c #905B67",
"6. c #C47561",
"7. c #9E831A",
"8. c #A5841B",
"9. c #AB841B",
"0. c #AB8A1C",
"q. c #A98417",
"w. c #B2871C",
"e. c #B2911A",
"r. c #9F8A22",
"t. c #A48223",
"y. c #AB8422",
"u. c #AC8B23",
"i. c #AD8B2A",
"p. c #A98728",
"a. c #B28B24",
"s. c #B38B2A",
"d. c #B68927",
"f. c #AA9028",
"g. c #B29223",
"h. c #BB9525",
"j. c #BB942A",
"k. c #B79929",
"l. c #B08B37",
"z. c #BDA12C",
"x. c #C59C29",
"c. c #C59A29",
"v. c #C79C34",
"b. c #D09A2C",
"n. c #CBA32D",
"m. c #D3A72B",
"M. c #CBA534",
"N. c #D3A632",
"B. c #D4AB33",
"V. c #D9AB38",
"C. c #DEB234",
"Z. c #DBB637",
"A. c #D9B52C",
"S. c #E6B92C",
"D. c #E2B333",
"F. c #ECBE34",
"G. c #ECBC3C",
"H. c #E4B839",
"J. c #F3BE3B",
"K. c #F4BA36",
"L. c #ECC335",
"P. c #ECC23C",
"I. c #E6C239",
"U. c #F1C33D",
"Y. c #F1C036",
"T. c #9D8348",
"R. c #A4884B",
"E. c #A78A53",
"W. c #A89259",
"Q. c #B8954F",
"!. c #9E856C",
"~. c #B69A6A",
"^. c #A19178",
"/. c #B19067",
"(. c #BAB07E",
"). c #C79057",
"_. c #D1AD50",
"`. c #E9BB44",
"'. c #F3BB43",
"]. c #FABC46",
"[. c #E2AD42",
"{. c #CF9864",
"}. c #DAA46A",
"|. c #D0A773",
" X c #E5AB6F",
".X c #E5AE7A",
"XX c #ECC344",
"oX c #E9C445",
"OX c #F2C144",
"+X c #F5C44D",
"@X c #F3C551",
"#X c #E8CA78",
"$X c #233C83",
"%X c #30578A",
"&X c #34499B",
"*X c #314F95",
"=X c #356193",
"-X c #344BA2",
";X c #3648A5",
":X c #314BA7",
">X c #3A73B0",
",X c #516989",
"<X c #717990",
"1X c #4549A5",
"2X c #4673AA",
"3X c #476FAF",
"4X c #93798A",
"5X c #7A8798",
"6X c #788387",
"7X c #7D87A4",
"8X c #828A95",
"9X c #BCAC8F",
"0X c #8697A7",
"qX c #8D91AE",
"wX c #B597A3",
"eX c #A6ADBA",
"rX c #AAB3B9",
"tX c #B2B3B5",
"yX c #9CADBB",
"uX c #CBBA9B",
"iX c #D6B389",
"pX c #CDB7AF",
"aX c #ED8680",
"sX c #F0CB91",
"dX c #D0C4A5",
"fX c #F8DDB0",
"gX c #E4D3A9",
"hX c #A9B9CA",
"jX c #B4B9CB",
"kX c #94ABC3",
"lX c #BCC7D1",
"zX c #B7CAE0",
"xX c #D7CFCA",
"cX c #E4D9CC",
"vX c #EAE5D9",
"bX c #FAE7C7",
"nX c #DDE3E7",
"mX c #F5F3ED",
"MX c #FDFCFD",
"NX c #F9FCF9",
"BX c #EAE7E4",
"VX c #CCDAE1",
/* pixels */
"                                                                                                                                ",
"                                                                                                                                ",
"                                                                                                                                ",
"                                                                                                                                ",
"                                                                                                                                ",
"                                                                                                                                ",
"                                                  ~.( ] ' [ W.NX(.| ' ) ^ R.                                                    ",
"                                                W.$.Q {  .c.v.~.R.X.X...X.%.W.W.R.                                              ",
"                                            @.5 _ ) 7 X.0.].V.Q } -.s.a.i.X.4 7 7 7 [                                           ",
"                                        $.4 0.h.G.n.u.} ( `.V.p.M.+XU.S.~ { e.V.oXd.=.] %.                                      ",
"                                        %./ n.V.fX#XB. .' J.D.0.k.n.A.A./ *.B.sXfX[.N.7 #.                                      ",
"                                        1.( N.`.bX#XC. .) J.D.w.g.k.A.A.( =.Z.sXbX`.N.8 #.                                      ",
"                                        1.( p.g.L.M.p.[ 7 P.C.s.M.L.P.H.[ } q.m.L.k.i.' %.                                      ",
"                                        cXxX$.{ o. .{ X.X.].'.H.G.P.XX`.O.X.` ..O.` { xXvX                                      ",
"                                        dXuX$. .8. ./ g.z.].'.B.H.P.XXoXx.0.Q O.y.o. .uXdX                                      ",
"                                        T.^ t.f.XXd.( N.I.U.Z.r.n.G.P.P.P.x.5 x.L.g.8.[ ,.                                      ",
"                                      @.*.=.C.C.e...^ V.OXK.D.f.M.'.P.P.P.x.Q *.j.D.D.*.$.|                                     ",
"                                      5 X.a.H.H.q...[ j.M.J.D.p.M.`.L.F.n.a.^ X.i.F.F.9...7                                     ",
"                                    W.' 8.h.C.C.q. .[ y.g.G.C.y.v.`.F.S.s.$.5 X.0.C.C.e.8.' ~.                                  ",
"                                  8 | 8.V.OXj.y.! ! Q B.P.9.9.w.w.0.u.j.OXv./ ! ~ =.l.I.V.l.| 7                                 ",
"                                  )  .u.B.P.a.9.] { ..j.v.m.x.0.u.i.n.N.x.h.t.{ ~ 9.a.I.B.s.{ ~                                 ",
"                                  _ ..k.B.B.+.O.E.p.7.y.s.C.m.0.p.i.N.m.9.0.r.%.R.y.9.C.N.c.{ Q                                 ",
"                                  ~ y.OXv.p.&.,.MX9X7 8.w.a.a.p.y.9.a.a.u.X.5 pXMX&.] d.b.I.=.@.                                ",
"                              #.$.+.c.I.z.f.' &.NXmXvX%.9 ' ] ` [ [ ` ] ' W.BXmXMX#.8 w.b.OXg.7.| #.                            ",
"                              [ [ a.x.L.k.$.i <.xXtXeXD M 0 0 0 0 0 0 0 N D eXjXlXB i O.j.`.j.0.7 [                             ",
"                              _ _ u.x.F.y.( 6X5XC x d *X-Xd d a a d p p *Xj a n A 5X8X! y.`.c.a.! }                             ",
"                              [ ] w.v.@Xp.5 rXlXNX7Xp =X>X;X-X:X-X-X-X-X2X%Xp yXNXzXhXQ y.OXc.+.] &.                            ",
"                              @.[ m.C.'.y.5 8X0XeX,Xs =X>X&X&X;X-X-X:X:X3X%Xp <XeX0X8X! y.P.B.b.7 #.                            ",
"                            vX&.X.L.F.K.y.9 B S Z n d =X2X&X&X1X1X;X:X:X3X%Xp V S Z S ^ 9.H.OXOX8 #.vX                          ",
"                            ! 8.g.'.'.J.y.9 }..X}.B p =X2X>X>X2X2X2X2X2X3X%Xp <.}..X}.( y.P.U.U.i.t._                           ",
"                          T.' 7.0.J.J.J.9._ Y Y }.B a f h v h f h v h h z f a <.{.;.T ( y.oXL.F.i.t.)                           ",
"                          R.^ 0.k.P.U.'.9._ U U 2.N g g b b b g b b v z c g g <.2.T U ^ y.oXL.F.j.a.^                           ",
"                          R.~ Z.oXoXP.G.9.~ <X<X& k ,X<X7X7X7X5X5X7X5X5X8X<XC 1 = <X6X4 8.'.'.OXF.m.! %.                        ",
"                          E.! [.'.I.I.G.y.' eXhXeX5XC 2 ; : N hXhXhXl < : 1 C C V VXcX) 0.P.G.`.P.V.( 1.                        ",
"                          E.Q H.P.F.F.G.y.) rXjX0XS 1 K L J T 3.3.3.K J L K 2 M Z BXvX! y.P.oXoXXXV.( ,.                        ",
"                          R.4 A.L.K.K.U.9.~ jXhXA 1 & R E E P # + + P E W I + M Z nXvX^ y.`.XXXXXXV.!                           ",
"                          E.' y.s.OXXXoX0.~ A m p . @ I E G H & & # I R L G @ o s nXvX8 7.XXJ.K.s.t.8                           ",
"                          %.) y.j.@XXXH.9.Q x b j m V ; H % H G G G G G H < V m $X,XD 4 9.P.Y.F.w.q._                           ",
"                            @.t.s.@X`.B.p.&.x n &X=X,X1 & @ % J J J H % * 1 ,X*X&Xn x $.a.D.L.L.q.q.[                           ",
"                            MX[ ` K.b.` dXMXNXVXs > % R E L J @ @ + G J L G # . s nXMXNXdX9 N.`.9 #.                            ",
"                              [ ' ..9.V._.W.    hXC o - H R I @ + + L P * O o 5XlXMXmXT.l.V.y.O.8 #.                            ",
"                              [ 7  .0.b.l.,.      D X 3 ; I J > > > J L ; 3 g rXNXMXmXW.Q.v.*.{ 8 |                             ",
"                              ' _ f.*.(           4.w w t % O s d d , - y y w pXMXNXNXMXdX) 7.p.~ [                             ",
"                              ) { H.c.^           !.w ~.|.{.2.q q q 2.).{.E.r 9XMXNXMXMXuXQ n.Z./ [                             ",
"                                R.c.h.a.Q.        ^.r |.sX X).r t e ).}.}.Q.r         uX{.w.h.h.                                ",
"                                  ! 0.L.h.      MX^.u uXfX X).w t e {..X X).r         ) a.H.O.`                                 ",
"                                                NX^.e iXfXsX|.t r q C ,XS F 6             (                                     ",
"                                                  ^.r {..XsX|.w u F eXjXyX8XM                                                   ",
"                                                  ^.r 2./.iX/.w u M wXpXwX4XM                                                   ",
"                                                    q A A C F y 3 # G L J G #                                                   ",
"                                                    F 0XkXxXtXC 2 @ L P L J                                                     ",
"                                                    k 5.4.aX6.k < @ I R G H                                                     ",
"                                                  >.# G J E P & @ + I R @ U                                                     ",
"                                                  >.& J L E P + $ : G J +                                                       ",
"                                                  :.= H J E P + U 4.K H                                                         ",
"                                                    , H G E P + 4.NX>.K                                                         ",
"                                                      U @ E R %                                                                 ",
"                                                      < # I L &                                                                 ",
"                                                          G H U                                                                 ",
"                                                                                                                                ",
"                                                                                                                                ",
"                                                                                                                                ",
"                                                                                                                                ",
"                                                                                                                                "
};
