/* XPM */
static char *_bbfbb5006174bc1a15e6ad5de3a3626jzMucHaBXmJPDrIk[] = {
/* columns rows colors chars-per-pixel */
"64 64 243 2 ",
"   c None",
".  c #361D34",
"X  c #2E3133",
"o  c #6D0104",
"O  c #670308",
"+  c #720303",
"@  c #7B0104",
"#  c #72030C",
"$  c #7E0209",
"%  c #690316",
"&  c #770313",
"*  c #7A1518",
"=  c #6E370D",
"-  c #791D20",
";  c #533B32",
":  c #7C323E",
">  c #795B09",
",  c #7A5A15",
"<  c #764D18",
"1  c #7B6205",
"2  c #7C630C",
"3  c #796608",
"4  c #796514",
"5  c #6D6904",
"6  c #574930",
"7  c #6E4B29",
"8  c #6C5327",
"9  c #755427",
"0  c #795937",
"q  c #6F5332",
"w  c #0B2746",
"e  c #0F2C58",
"r  c #162C53",
"t  c #15395A",
"y  c #152C4B",
"u  c #303950",
"i  c #0E3461",
"p  c #1A326D",
"a  c #293479",
"s  c #2A3073",
"d  c #411F42",
"f  c #543347",
"g  c #752461",
"h  c #7F2E47",
"j  c #2C4165",
"k  c #364F6C",
"l  c #364C4B",
"z  c #55554E",
"x  c #7D694B",
"c  c #49597B",
"v  c #4F5A6D",
"b  c #54636D",
"n  c #566468",
"m  c #4E6877",
"M  c #55637A",
"N  c #586575",
"B  c #4A6462",
"V  c #646E77",
"C  c #6C4C5A",
"Z  c #8C0304",
"A  c #880308",
"S  c #940304",
"D  c #9D0304",
"F  c #94020A",
"G  c #9B020B",
"H  c #9C0903",
"J  c #9E0412",
"K  c #911219",
"L  c #890F16",
"P  c #A70307",
"I  c #B20206",
"U  c #AD0F12",
"Y  c #911A25",
"T  c #852729",
"R  c #952A31",
"E  c #AF3516",
"W  c #CB0304",
"Q  c #D80305",
"!  c #E33E3D",
"~  c #845D0B",
"^  c #845C07",
"/  c #845C14",
"(  c #835D1B",
")  c #895A16",
"_  c #985012",
"`  c #83630C",
"'  c #8B620C",
"]  c #8A6A0B",
"[  c #93760E",
"{  c #846311",
"}  c #8C6514",
"|  c #8E641B",
" . c #876A18",
".. c #926A14",
"X. c #936B1A",
"o. c #956616",
"O. c #8A7215",
"+. c #937213",
"@. c #9B7915",
"#. c #9B741A",
"$. c #96741B",
"%. c #906F0E",
"&. c #A6791B",
"*. c #875F34",
"=. c #8D522B",
"-. c #896727",
";. c #936C25",
":. c #8E7529",
">. c #997626",
",. c #87643A",
"<. c #987A38",
"1. c #8B7735",
"2. c #A57A24",
"3. c #B07D24",
"4. c #B04A3D",
"5. c #D97F36",
"6. c #E54A1B",
"7. c #964B4D",
"8. c #856B4A",
"9. c #976C46",
"0. c #8F6C53",
"q. c #A77449",
"w. c #A47E5D",
"e. c #845764",
"r. c #AD5C68",
"t. c #907473",
"y. c #B4726F",
"u. c #A14957",
"i. c #E04241",
"p. c #E7596B",
"a. c #AB831D",
"s. c #A9881A",
"d. c #B3871B",
"f. c #9D813C",
"g. c #A98627",
"h. c #B48B23",
"j. c #B58A27",
"k. c #BA9527",
"l. c #A58438",
"z. c #BA9233",
"x. c #B38F2E",
"c. c #C79929",
"v. c #C59B33",
"b. c #D5832A",
"n. c #CCA12B",
"m. c #D4A62B",
"M. c #CBA634",
"N. c #DBAB32",
"B. c #D5A936",
"V. c #DCB33A",
"C. c #D6B534",
"Z. c #EBBD3C",
"A. c #E7B839",
"S. c #F4BA3B",
"D. c #E2AD33",
"F. c #E5C43D",
"G. c #EBC23B",
"H. c #E8C337",
"J. c #F3C33C",
"K. c #ECC22C",
"L. c #A6894B",
"P. c #B68148",
"I. c #BB8B5C",
"U. c #A99059",
"Y. c #8F8373",
"T. c #AD8E6C",
"R. c #CD9657",
"E. c #D4AB4C",
"W. c #EBBE44",
"Q. c #E8B945",
"!. c #F5BA45",
"~. c #D89C68",
"^. c #CB936D",
"/. c #E79B68",
"(. c #E19873",
"). c #D5AD72",
"_. c #E9AB78",
"`. c #E5B27C",
"'. c #EEA670",
"]. c #EDC344",
"[. c #ECC146",
"{. c #F3C243",
"}. c #F5C549",
"|. c #EECF6A",
" X c #303A8E",
".X c #29448A",
"XX c #334396",
"oX c #3246AC",
"OX c #3C6692",
"+X c #49568A",
"@X c #4A5581",
"#X c #586884",
"$X c #5D7182",
"%X c #486E9D",
"&X c #657588",
"*X c #6D7591",
"=X c #4170A4",
"-X c #767BA0",
";X c #AF7786",
":X c #768491",
">X c #6988A4",
",X c #978982",
"<X c #8F9091",
"1X c #AE9194",
"2X c #BBAB84",
"3X c #BAB091",
"4X c #808DA1",
"5X c #8A94A4",
"6X c #8D99B5",
"7X c #8386B1",
"8X c #98AAB7",
"9X c #B7B5AF",
"0X c #C2B68F",
"qX c #D6B78D",
"wX c #C7B99C",
"eX c #D8BA91",
"rX c #ECB586",
"tX c #F0B383",
"yX c #CDB8B0",
"uX c #DB8F9B",
"iX c #EFD588",
"pX c #F4CA98",
"aX c #F0CB8B",
"sX c #D5C8A9",
"dX c #D4D2B9",
"fX c #F9D6A6",
"gX c #F0D9B3",
"hX c #F6E3B5",
"jX c #AFB5D1",
"kX c #8FAAC4",
"lX c #DBB7C0",
"zX c #B7C7D5",
"xX c #B9C1C9",
"cX c #CED7DC",
"vX c #D6D5CD",
"bX c #E6DBCA",
"nX c #EDE5E1",
"mX c #F9FBED",
"MX c #F6FBFA",
"NX c #FDFDFD",
"BX c #F9F8F8",
"VX c #E8FDF6",
"CX c #E5E7D8",
/* pixels */
"                                                                                                                                ",
"                                                                                                                                ",
"                                                          NX                                                                    ",
"                                                      NXNXNXNX                                                                  ",
"                                                    MXNXNX      NXNXNX                                                          ",
"                                                >.<.>.bXNX      NXNX<.<.:.:.-.                                                  ",
"                                                2.#...).sXwXwX  sXsX_ _ L.<.X.                                                  ",
"                                            ;.X.A.B.x...^ 2 2 4 / ) Q i.BX).d.X.;.                                              ",
"                                          NX<.) ( >.Q.N.N.C.C.m.&./ P U ! 5.V.+.:.                                              ",
"                                        ).0Xz.&.;.x.W.G.H.iX|.Z.a.^ G U 6.b.B.%. .2X                                            ",
"                                      1 1 1 m.K.Z.W.[.G.H.mXhX}.a.^ S E }.c.s.) ) ,                                             ",
"                                  ;.$.g.v.A.S.S.c.n.W.hXnXMXhXS.c.g.^ ^ ..} } &.a.g.>.                                          ",
"                                  ) X.v.V.J.D.m.&.h.M.iXhXhXiXZ.B.v.[ @.3.#.X.@.a.M.g.2                                         ",
"                                  =.;.H.F.F.k.s./ ..d.A.{.].].A.F.F.s.k.!.v.g.` @.F.k.>                                         ",
"                                  o.&.{.M.g.%.' g.>.( M.F.S.N.x.V.J.S.N.d.g.g.` @.Q.k.~                                         ",
"                                  { } 3.g.g.} ` $.#.#.V.].n.h.o.v.G.M.z.| 2.h.] @.W.c.&.L.                                      ",
"                                    > = | x. .> 3 %.d.A.{.s...= j.A.x.>.= X.d.] @.!.m.d.4 4                                     ",
"                                      ( #.d.] } _.w.X X X ` $.x.O.> = < d.d.g.3 [ S.S.Z.O.2                                     ",
"                                      T.l.+.( -._.Y.j &X:X; ,.E.R.P.< ) g.#.+.` %.v.V.]...{                                     ",
"                                        U. .9 *.`.,X.XkXzX; 8.)././.' ..g.$.;.;.X.g.M.J.../                                     ",
"                                            8.x fX3X.XzXMXfXpX`._.(.3.&.4 3XNXNXsX` k.H.o.|                                     ",
"                                            0 0 rXqX9XgXhXtX_.).L.,./ -.          , x.W.j.j.1.                                  ",
"                                              0.^.).pXpXpX'.~.U.q 6 ,.            , z.Q.n.k.> <.                                ",
"                                                7 q.'.tXrX/.0.w w w               ( v.[.H.C.{ U.                                ",
"                                                vX3X-.-.-.l j  Xp r k M           ` c.J.Z.V.' T.NX                              ",
"                                                6X*Xz ,.,.i a  X+X#X#X$X          ` h.N.A.V.+.L.0X                              ",
"                                                w p oX;X^.oX Xw 5XBXMXcXn         ~ @.d.A.A.s.+.2                               ",
"                                                r s  Xs u r M cX5X*X*X&XB           L.' Q.W.V.d.`                               ",
"                                              t.. d g d . $X4XxX1Xt.Y.t.z           L.^ Q.[.].k.'                               ",
"                                              O + D Q A O MXxXM T.~.).R.<           L.^ V.W.W.z.)                               ",
"                                              Y uXp.W Z o BXyXq I._.fXqX8           f.~ V.G.J.h.~                               ",
"                                              r.y.4.P r.;XMXyXq I._.fXqX8           <.^ v.B.Z.c.#.U.                            ",
"                                                2 = # lXBXMXyXq I._.fXeX8             ~ x.z.H.n.d.|                             ",
"                                                b &X>XcXmXk f O Z D D S o             NX .O.].G.Z.;. .                          ",
"                                                u k +X*X-XOXc f e.r.;Xr.f             mX-. .{.G.H.+.{                           ",
"                                                e p a a a =X%X#X6XzXjXjXV             mX-.| Q.Z.H.+.`                           ",
"                                              y XX Xa XXoXN :X      B &XNX            NX4 2 h.m.J...~                           ",
"                                            t i XXXXs @X+X9X        b b v           NXNXdXdX] k.!.#.}                           ",
"                                            t i .Xa s c M           N b v           MXMXNXnX1 a.B.#.$.                          ",
"                                              y w r  Xc m       6X7XM *X              mXBXnX> ` } 2.g.                          ",
"                                                6 f e t t *X&X&XV N q x                 U.l.2.X.` } |                           ",
"                                                9 6 z l X ,X,X,XY.t.8 8.                L.l.2.&.s.} /                           ",
"                                                  q.~.-.< _.rXfXaXrX9 8.                  bX/ j.J.+.{                           ",
"                                                b Y.~.,.7 ~.`.fXfXfX7 8.NX                bX) 2.z. .                            ",
"                                                4X,XT.q.9.q.^.pXfXfX9.9.wX                3X/ X.2.                              ",
"                                                zX6X@X^./.< <._.pXhX~.R.<                 5 1 1 2                               ",
"                                            * # S u.jXV B M M c b n m m c                                                       ",
"                                            * + S R r.n b M #X&X:X4X8X<X: e.                                                    ",
"                                            * + D D H C N M &X4X8XjXVXyXP : M                                                   ",
"                                            T # G G G + O MXyXO F P P I Q I S                                                   ",
"                                          =.K Z S F J $ o       Y A G P Q I G T                                                 ",
"                                        7.+ S D Z F J K L       R * F J W I P @ *                                               ",
"                                      S H H H H G Z o 1X            o @ S I W P G O 7.                                          ",
"                                      + Z D D D D Z #               yXy.& I Q P S O 7.                                          ",
"                                      - L F S S D F &               yXy.& P W H Z o u.                                          ",
"                                          % o + G F %               + @ D D G @ + #                                             ",
"                                                A R                 o @ D Z @                                                   ",
"                                                                  1Xo + A L T                                                   ",
"                                                                h % % # o                                                       ",
"                                                                                                                                ",
"                                                                                                                                ",
"                                                                                                                                ",
"                                                                                                                                ",
"                                                                                                                                "
};
