/* XPM */
static char *fe97b791a2434740eb5bc9fc2b1084351102fd8RlHFORG48[] = {
/* columns rows colors chars-per-pixel */
"64 64 90 1 ",
"  c #9FA09E",
". c #A3A19F",
"X c #A6A6A4",
"o c #AAA9A6",
"O c #AEAEAC",
"+ c #B1ADAD",
"@ c #B4B2AE",
"# c #B5B4B3",
"$ c #B9B7B6",
"% c #BAB9B6",
"& c #BDBCBA",
"* c #C1BEBD",
"= c #BEC1BE",
"- c #C2C1BE",
"; c #BFBFC1",
": c #C1BFC0",
"> c #C5C4C3",
", c #C9C6C5",
"< c #C6C8C5",
"1 c #CAC9C6",
"2 c #C6C5C8",
"3 c #C9C6C9",
"4 c #C7C9C8",
"5 c #CCCBCB",
"6 c #D1CECD",
"7 c #CFD0CC",
"8 c #D2D1CE",
"9 c #CFCDD0",
"0 c #D1CFD1",
"q c #CED2D0",
"w c #D5D3D3",
"e c #D9D6D6",
"r c #D7D8D5",
"t c #D9D9D6",
"y c #D7D5D9",
"u c #D9D7D9",
"i c #D7D8D8",
"p c #DDDBDC",
"a c #E1DEDE",
"s c #DFE0DD",
"d c #E2E1DE",
"f c #DEDDE0",
"g c #E1DEE2",
"h c #DFE0E0",
"j c #E7E4E3",
"k c #E6E5E3",
"l c #E4E2E4",
"z c #E5E3E5",
"x c #E4E2E6",
"c c #E3E4E4",
"v c #E5E4E4",
"b c #E6E4E7",
"n c #E8E6E4",
"m c #E8E6E6",
"M c #ECE7E7",
"N c #E6E8E4",
"B c #EBE8E7",
"V c #EAE9E7",
"C c #E4E3E8",
"Z c #E6E5E9",
"A c #E6E7E8",
"S c #E8E6E8",
"D c #E9EAE8",
"F c #EBE8EB",
"G c #EEEBEB",
"H c #EBE9EC",
"J c #EEEBEC",
"K c #EBEDEC",
"L c #ECECEC",
"P c #EEEEEE",
"I c #F1EEED",
"U c #F0EDEE",
"Y c #F0EEEE",
"T c #EFF0EE",
"R c #F0F0EF",
"E c #EEECF0",
"W c #EFEDF0",
"Q c #F2EFF0",
"! c #F1EEF2",
"~ c #EFF0F0",
"^ c #F1F1F0",
"/ c #F3F3F2",
"( c #F4F5F3",
") c #F3F2F4",
"_ c #F5F4F5",
"` c #F8F3F5",
"' c #F8F8F7",
"] c #F5F4F8",
"[ c #F9F7F9",
"{ c #F8F9F9",
/* pixels */
":>,>&*##%%&&%%&*>yg,*>%*%$$%&pg5>>63&+++&5pD^sptepayppplS5-$$*&O",
"v^vlYGmDmG_^ltvllwSwglweDJJDla6%5vtpjapwpDjtPwwalaapllddu>lWPGjj",
"PlpPvjvDJDplWSPRlpl>evASAflvWWS5jDSlggmlmvVVJ5aldpjmvjdpe8YSPQGR",
"ptw6weptdrpwpgpdpYuwmDJDglcpa(D,jjfpaaalplpwv8lCmjVmMwytSw&>wwtd",
"eamVDWHDvvjpGDjlcjttYKDSaaAljpS>aSggdalpjjgcv8ddvjjjgVDJAppdlaat",
"jDDmDSlDljppw6plD^vyjjpjalppmag6mGPtetppmjvPj5tljpdjvd6vGwDPlDmp",
"lPmYPpjppGPcjmjmVdepjjDDdldDpp4%tdjGlPYSDDDDwaPP^VDmDjjl81ulvjPl",
",1,5&>5plww-&>****&&-**>%&$-&#X o#%%,p>*,44:11,4,>t45-&&>,w5>6tt",
"4ajmddjdj0lwlvvjpplarppp8wagpppgfgppye*plmdjjdppad8wda8tatlpPlwt",
"5mGvjjaPamjy_{_DRWPVPVjPDDDmSDSSSJSvSmwAHGGDmjjlfdjmdatDPVlVDpl8",
"1jmvVP^`QmStPattpllvmljSSlljllppttpllSwllPPHlDDGSDVmvptljvvWYvmw",
",pamdNDmma^ppalldlppappgajldlgHSDDJlP^wpjDvlASmGJDJHjapDYG^)YGmw",
"5ldtpmjwl^D1pggllDvPSvJllPlpalvPJSJ^{D5P^)[[DDPQP^JPJV_{{D^^^P^e",
"wwwtlPV8e6>5tpppp(P>uw64w4,lptja>,pd>#%%>-6wlalhtwe5,185Dpw6wt6-",
"66wttw%5658yw5455v155ualw0p,>y8%>4,>45854--&w64->appplSDD55651,,",
"PSSmPlpavllClgSAvp4tlSSAgAgfpgl5jmSgSJPmHJSlPwwyetwtpAlvp,ddpplH",
"lvlgppAfSvAHSPPAvD8pgAHDggfpglljwJSSSlgtCAlgD5pe8ptlddvSm6tvvlmf",
"JlASvSlSDlACHSCHKQealJlytpfgjlvfgJlCglAAlWlll5tfpfppllgSG1aljalA",
"gAAllvjlpppP))AQ[pwjllgwwpfSllPplglACHgpJAlgA,tgSAlmSADvD4aAcvlg",
"avpvAjjavP'^RD(^QJjDSSlSDDGJ^^_vKPPTPvDGQSv_m,1vpgDPYGPHSmDCl^^p",
",>50up1,>>81#&,,--,55$&&&&&*>>wue66ljjp,>*4w5*>wywmYV8>%O$><15t-",
"AJW)QPDllgwy5tpuwwp,O&ytytpppgpftpwlwy+XOpvw&5plvSaeypptplptwwp4",
"SJHWlplJmpj6wvgfClJy%lPHflglC0llglDSvugPHllASASDHDjjllgglvvjtll6",
"ljvuDplSvNVelSJJvl4;lSDlSllSDSQDDjvvSlHHHAlCDvSvAllaaapplAgalvg6",
"vpeuajjptVt0talfpuggggfggllllgpupajSDJllAHASSAAlpaalmdttajldlv0w",
"paltp8pdteYyfpplQAglvAlflappppllpllPQlgllllglllgvglllpdateajllpe",
"tlppld^Vj61>DlpwDpplllPvVDvR[Qawwvjt56wvdplAlltJvJgtwlvlpdpGPjtp",
"-1wpaaettpl515,2-5%&&->>454w)gpegp1pw6>-@&8ylt>*#>,&4#&-=5ptw3>&",
"JPGDJDJSDfywDQWWSdwlllllvglgJpplaSDPQGmpv_Pm5,pglllvAGti8ylvlmSS",
"JPPYGGmvSWHJHADSljylDAAgvQSvJutlpDvGSptpHWJSyplDSSDmDPYDwlD^Q^^W",
"(^_QPJGvSWW)SSQDDSyASWJW^SfDD554wplllppAlWfp4pSHHASJJDdve_[)__Q_",
"RPPPWJHJHvvvlADvDSulvJ))WlSHl,ypHWQ_^lggm)vDwmlDmGJWYP^VrDSSHJPP",
"amj^PP{PPPW)lPvgSApASSQQHHSQp,jjQAD_WlwvvljQu^WH^^^[_YGDwlJJHPP^",
"lppDjt1578wlDjtweyw6t6>,wwuu*&,wuygpuD(^lpypyp,>>1>qww6*@,w6w5av",
",tll61--1,yy04w60u054,wwwupt0upuupp,5yJu,<>1##,1,>5&#o..@$%$$$+5",
"wpmyplamAJSjpulACgfllAlHSASglllgpgglSAJyYHp5wmmglvvcvPj^JGQSPJYJ",
"5wglSglHWHDDtwlvluggpgpplpptpllllJllpAJy_YPHlDSJAHlSlSCHDWSDPSHS",
"*,SJSDWWSlSDp0lSwgllfglflfflDJSAvplvJS_w44wgvWQAAWP^QJSJDWJJDAHl",
"*jJJJAWDgSJAl5lllgupupllgCCAHHJlAJJvlJ)yHDllvHASSPHcDSSJHHHHPJHl",
"6vDjAHSmSHQ)p5SJAvHHSSpggvpplDAHJDA)J_Jp__^YSSPDD~DQ^W(VvmDJQQ_W",
"&7w8wjDvstw8-o4ppagAppyyypw5e8llyptt86&*-&>5_v>4epsyp05uepw8wyw6",
">>4wt5&,wptyww005>l56puuu9ttpyDpwlygvlAlvSSvS4eme4>5>>aee45yyy4&",
"SHDJJJJAHSSSSSCAvvl55eypggflglJplpfpf0llSQJDQwmDWWJAAHHWJ5WWW_SJ",
"HADJWQAWHlgSAWWgAlm5egugallllDlwllgDulAlAWHAPwlvVGlvDvmjv3QWQpGG",
"S_pmQWPPSSHPD)HlAvl3wgDvAlllvDS6plSglHDCDDHHJwmSjljvvmlYQ5QPYPHJ",
"AlupWWWQHlHHHWSlCJp5vW_plvvDPJJ6lllJJlAAlSvvDwDASSmlllDG_pH^QQ)^",
"GQPSPP^QWW^QQQQSHa5uvPpwYpjjmSl6fSvlDvvQ^Dmv56vWAvlGR^TPv5y^_QQ)",
"wDflJw,&$%,50lvyf5>&,0,,wgptyw5>**454585wO+##%>,%O#&15yyw>2,,6,1",
"wgw,#4jDJSJlpgylf3yytutvptypttpyypppADAW00HvSDpw0lQHpw00>w4556wp",
"DDtpHHWJDD0lHJ55fADHHgfggggfgggtpglllAHAwg_))))JP)JWPQHAlySD)JDJ",
"SlwJQWQWWHJAHSwS)Q)]JHQJ)WAQWQQQW^^WAADH0e[]QQJWlylgttpy5glgggHD",
")GpQJJHWQJJ)]QuAHWWADWHDHJQQHHAClDSSDDWQwpllvwyuplllgfgWSSWWQQQ)",
"PJgQQHJWQQQQ__tQHvPHWJHWASAgASSllSvDCWQ]>y)HHJJCWDWWQWAVg)WQW)WQ",
"JApWHPHADPP^_Dwml__Qealgtp056plSpww6twyvylptgulJvSgSP)_PJ__^_^^l",
"&%@@5,,58&>#&5*&t6ee>0545wwtppuw#>w5,:>4>>&>&uw&>&&:&2945Se3>>%&",
"vvjJpgplmaparugj6ug6wCHSCAJAAHHpwSpllSSJSHgDJl4vpJJJjHSlAp3lSlvm",
"llglu>wmfflplllvjjj6lCASADDClHll0lppfuplHJQWJJu0gAJASSHDGtlllSga",
"AAlA6&jjlppajajalvjpflCAASAlAAJlylpllyyyfgglgpwfgAgpAHDJ^pmllljl",
"vHlS15DvlupejmajpwlpflfllCCCHJ)p0JAAlPPHW]QQHlwgDDASJWQQlplllllp",
"JSlHufAJvgldlpadGpSwpHHHWWWW^_[8u_SlPHlSWllAJgulHWWQ)WSJJuuypDgj",
"09,w18dlpJD1>&>*#*,>58w6tpputw5tt,>,Slw5555w5-55yyw0pelpt56up^vy",
"wlllwptepS>pAaGWmJvgpppalpw33wu4&11&y456flvllvalglllejltpStweWfl",
"tgpHwpltpp5AH^JSlfHDgpvDHSvlllplplflg>upCllvlDVSlClvJSllClggvHuu",
"gll6wlvpld5PDlalpA^PSDDAlAHppllpgSppg2utfgttgD)ClgllllltgllljS0u"
};
